<svg xmlns="http://www.w3.org/2000/svg" xmlns:xlink="http://www.w3.org/1999/xlink" viewBox="0 0 97.04 93.74"><defs><style>.cls-1{fill:#282727;}.cls-2{fill:url(#linear-gradient);}.cls-3{fill:url(#linear-gradient-2);}</style><linearGradient id="linear-gradient" y1="46.95" x2="67.92" y2="46.95" gradientUnits="userSpaceOnUse"><stop offset="0" stop-color="#5391f0"/><stop offset="1" stop-color="#8400ff"/></linearGradient><linearGradient id="linear-gradient-2" x1="30.76" y1="20.27" x2="97.04" y2="20.27" gradientUnits="userSpaceOnUse"><stop offset="0" stop-color="#5391f0"/><stop offset="0.16" stop-color="#5191f0"/><stop offset="0.24" stop-color="#4a92f2"/><stop offset="0.3" stop-color="#3d93f4"/><stop offset="0.34" stop-color="#2b94f7"/><stop offset="0.38" stop-color="#1496fb"/><stop offset="0.41" stop-color="#0097ff"/><stop offset="0.6" stop-color="#0397ff"/><stop offset="0.71" stop-color="#0b96fd"/><stop offset="0.81" stop-color="#1a95fa"/><stop offset="0.9" stop-color="#2e94f7"/><stop offset="0.97" stop-color="#4892f2"/><stop offset="1" stop-color="#5391f0"/></linearGradient></defs><title>Asset 1</title><g id="Layer_2" data-name="Layer 2"><g id="OBJECTS"><g id="_Group_" data-name="&lt;Group&gt;"><rect id="_Path_" data-name="&lt;Path&gt;" class="cls-1" x="39.45" y="59.66" width="26.73" height="34.08" rx="3.26" ry="3.26"/><path id="_Path_2" data-name="&lt;Path&gt;" class="cls-2" d="M63.64,4.38a15,15,0,0,0-21,.18L0,47.18V87.84a5.9,5.9,0,0,0,5.9,5.9h7a5.9,5.9,0,0,0,5.9-5.9V57.6L67.92,8.52Z"/><path id="_Path_3" data-name="&lt;Path&gt;" class="cls-3" d="M30.76,16.42c9.9-5.53,24.14,4.24,24.14,4.24L72.49,36.09A18,18,0,0,0,97,35.29h0L63.63,4a15,15,0,0,0-20.83.35Z"/></g></g></g></svg>